<svg width="264" height="343" viewBox="0 0 264 343" fill="none" xmlns="http://www.w3.org/2000/svg">
<path d="M239.279 199.981C226.796 286.972 176.477 336.243 115.489 327.491C54.5005 318.739 8.72862 250.091 21.2117 163.1C33.6948 76.1098 97.1559 7.53937 158.144 16.2911C219.132 25.0429 251.763 112.991 239.279 199.981Z" fill="white"/>
<ellipse cx="180.5" cy="162" rx="7.5" ry="1" fill="#FF6600"/>
<path d="M177.321 144.035C198.779 139.442 222.325 162.111 241.156 197C242.537 166.332 243.615 149.745 238.5 118L226.077 115.788C223.717 107.285 225.716 103.072 229.595 95.6106C200.992 89.8193 192.257 95.5224 178.327 107.717C164.392 105.177 164.585 98.4873 172.798 83C142.472 99.4909 139.42 111.507 143.645 134.451C128.631 140.97 123.198 145.03 116 152.611C128.438 154.273 134.229 155.635 140.126 159.673C148.409 168.605 148.913 174.116 146.158 184.389L173.3 181.363C153.71 163.502 155.863 148.629 177.321 144.035Z" fill="#FF6600"/>
<path d="M198 220.966C198 244.476 184.166 261 160.785 261C137.404 261 121 247.516 121 224.007C121 200.497 137.404 186 160.785 186C184.166 186 198 197.457 198 220.966Z" fill="#FF6600"/>
<path d="M189 195C183.742 189.134 180.574 185.956 173.5 181L146.5 183.414C143.325 187.886 141.703 189.583 139 191.621L189 195Z" fill="#FF6600"/>
<path d="M150.486 238C154.265 247.095 154.655 252.561 145.491 260L136 254.372C146.98 250.877 149.631 246.445 150.486 238Z" fill="white"/>
<path d="M138.987 242C137.206 245.473 134.626 247.513 130 249L134.494 253C137.467 249.429 139.166 246.623 138.987 242Z" fill="white"/>
<ellipse cx="181" cy="164.5" rx="8" ry="8.5" fill="#FF6600"/>
</svg>
